<svg xmlns="http://www.w3.org/2000/svg" width="24" height="32"><g transform="translate(0.476 0.534)"><path d="M 3.524 29.466 C 3.524 28.914 6.882 28.466 11.024 28.466 C 15.166 28.466 18.524 28.914 18.524 29.466 C 18.524 30.018 15.166 30.466 11.024 30.466 C 6.882 30.466 3.524 30.018 3.524 29.466 Z" fill="rgba(0,0,0,0.05)"/><path d="M 9.524 19.466 L 12.524 19.466 L 12.524 28.966 C 12.524 29.242 12.3 29.466 12.024 29.466 L 10.024 29.466 C 9.748 29.466 9.524 29.242 9.524 28.966 Z" fill="rgb(178,178,178)"/><path d="M 6.98 1.66 L 1.666 6.918 C 0.592 8.002 -0.007 9.468 0 10.994 C 0.008 12.52 0.621 13.981 1.706 15.054 L 6.98 20.272 C 9.22 22.489 12.828 22.489 15.068 20.272 L 20.375 15.022 C 21.452 13.939 22.054 12.471 22.048 10.943 C 22.042 9.416 21.429 7.953 20.343 6.878 L 15.068 1.66 C 12.828 -0.556 9.22 -0.556 6.98 1.66 Z" fill="rgb(255,255,255)"/><path d="M 13.661 3.082 L 18.936 8.3 C 19.648 9.005 20.049 9.964 20.049 10.966 C 20.049 11.968 19.648 12.928 18.936 13.632 L 13.661 18.85 C 12.2 20.295 9.848 20.295 8.387 18.85 L 3.112 13.632 C 2.4 12.928 1.999 11.968 1.999 10.966 C 1.999 9.964 2.4 9.005 3.112 8.3 L 8.387 3.082 C 9.848 1.637 12.2 1.637 13.661 3.082 Z M 14.524 7.466 L 7.524 7.466 L 7.524 9.466 L 10.024 9.466 L 10.024 14.466 L 12.024 14.466 L 12.024 9.466 L 14.524 9.466 Z" fill="rgb(250,202,83)"/></g></svg>