<svg xmlns="http://www.w3.org/2000/svg" width="24" height="24" viewBox="0 0 24 24"><g fill="none" fill-rule="evenodd"><path fill="#00C24A" d="M5.19629206,4.86332173e-06 L18.7992943,0.0186238035 C21.6596558,0.0225388877 23.977461,2.34034411 23.9813761,5.20070563 L23.999995,18.8037081 C24.0039177,21.6696155 21.6838206,23.9960725 18.8179132,23.9999951 C18.8131781,24.0000016 18.808443,24.0000016 18.8037079,23.9999951 L5.20070573,23.9813762 C2.34034422,23.9774611 0.0225389936,21.6596559 0.0186239095,18.7992944 L4.96933884e-06,5.19629195 C-0.00391770577,2.33038451 2.31617935,0.00392753843 5.18208679,4.86332156e-06 C5.18682188,-1.61776779e-06 5.19155697,-1.61776773e-06 5.19629206,4.86332173e-06 Z"/><path fill="#FFF" d="M19.5000026,15.2003569 L19.5000026,18.6642001 C19.5000026,19.1316103 19.1077067,19.523901 18.6402965,19.4988612 C16.2281262,19.3569688 13.9661948,18.6391603 11.9880482,17.4956747 C9.70942361,16.1769103 7.8230897,14.2905764 6.50432529,12.0119518 C5.35249309,10.0338052 4.64303122,7.77187383 4.50113885,5.35970349 C4.47609902,4.89229332 4.86838969,4.50000264 5.33579987,4.50000264 L8.7996431,4.50000264 C9.20028038,4.50000264 9.5424914,4.78378739 9.61761089,5.16773146 L10.23526,8.23928401 C10.2936863,8.51472214 10.2018736,8.79850689 10.0099016,8.99047892 L7.89820919,11.0938247 C9.09177445,13.1804772 10.8195228,14.9082255 12.9061753,16.1017908 L15.0095211,13.998445 C15.2098397,13.7981264 15.4936245,13.7146603 15.760716,13.7730866 L18.8239219,14.3823891 C19.2162126,14.4575086 19.5000026,14.7997196 19.5000026,15.2003569 Z"/></g></svg>